<mxfile host="65bd71144e">
    <diagram id="b6ZwDVxEgR5C0BtFMrq1" name="Page-1">
        <mxGraphModel dx="2647" dy="1570" grid="0" gridSize="10" guides="1" tooltips="1" connect="1" arrows="1" fold="1" page="0" pageScale="1" pageWidth="1920" pageHeight="1200" background="#ffffff" math="0" shadow="1">
            <root>
                <mxCell id="0"/>
                <mxCell id="1" parent="0"/>
            </root>
        </mxGraphModel>
    </diagram>
</mxfile>